<?xml version="1.0" standalone="no"?>
<!DOCTYPE svg PUBLIC "-//W3C//DTD SVG 20010904//EN"
 "http://www.w3.org/TR/2001/REC-SVG-20010904/DTD/svg10.dtd">
<svg version="1.0" xmlns="http://www.w3.org/2000/svg"
 width="613.000000pt" height="613.000000pt" viewBox="0 0 613.000000 613.000000"
 preserveAspectRatio="xMidYMid meet">
<metadata>
Created by potrace 1.14, written by Peter Selinger 2001-2017
</metadata>
<g transform="translate(0.000000,613.000000) scale(0.100000,-0.100000)"
fill="#000000" stroke="none">
<path d="M3047 5424 c-1 -1 -78 -4 -172 -7 -93 -3 -179 -8 -190 -10 -18 -4
-50 -9 -155 -23 -78 -11 -335 -55 -379 -65 -25 -6 -59 -13 -76 -16 -16 -2 -48
-9 -70 -15 -22 -5 -47 -11 -55 -13 -8 -2 -67 -18 -130 -35 -802 -222 -1312
-588 -1483 -1065 -33 -93 -57 -216 -60 -306 -3 -78 15 -247 34 -314 24 -87 24
-88 -32 -176 -233 -371 -315 -777 -229 -1125 115 -462 490 -867 1078 -1163
142 -72 191 -94 307 -138 50 -18 99 -38 110 -43 54 -25 409 -124 518 -146 323
-63 431 -72 797 -73 179 0 345 4 370 9 95 17 158 25 305 35 55 4 111 8 125 10
75 9 127 16 140 20 8 2 31 7 50 10 236 39 614 156 859 267 769 348 1264 838
1386 1373 61 265 18 561 -121 837 -41 82 -122 213 -170 276 l-32 42 14 53 c24
88 29 146 28 302 0 125 -4 164 -24 235 -104 379 -383 686 -820 903 -143 71
-167 82 -305 131 -153 54 -326 103 -435 122 -14 3 -41 9 -60 14 -19 5 -53 11
-75 15 -39 5 -69 10 -130 20 -62 10 -218 28 -350 40 -95 9 -562 24 -568 19z"/>
</g>
</svg>
