<?xml version="1.0" encoding="utf-8"?>
<!-- Generator: Adobe Illustrator 21.0.0, SVG Export Plug-In . SVG Version: 6.00 Build 0)  -->
<svg version="1.1" id="Layer_1" xmlns="http://www.w3.org/2000/svg" xmlns:xlink="http://www.w3.org/1999/xlink" x="0px" y="0px"
	 viewBox="0 0 512 512" style="enable-background:new 0 0 512 512;" xml:space="preserve">
<g>
	<path d="M483.9,201.6l-63-197.1C420,1.8,417.5,0,414.7,0h-53.8c-2.9,0-5.3,1.8-6.2,4.5l-63.5,197.1c-0.2,0.6-0.3,1.3-0.3,2
		c0,3.5,2.9,6.5,6.5,6.5h39.2c2.9,0,5.4-1.9,6.3-4.7l12.2-42.9h61.9l12,42.8c0.8,2.8,3.3,4.7,6.3,4.7h42.6c0.7,0,1.3-0.1,1.9-0.3
		c1.7-0.6,3-1.7,3.8-3.2C484.3,205,484.4,203.3,483.9,201.6z M361.3,126.3l22.8-81.3h4.4l22.3,81.3H361.3z M461.1,469.1h-90.2v-0.3
		l92.2-131.4c0.8-1.1,1.2-2.4,1.2-3.8v-25.3c0-3.5-2.9-6.5-6.5-6.5H316c-3.5,0-6.5,2.9-6.5,6.5v29.9c0,3.5,2.9,6.5,6.5,6.5h85.3v0.3
		l-92.6,131.4c-0.8,1.1-1.2,2.4-1.2,3.8v25.3c0,3.5,2.9,6.5,6.5,6.5H461c3.5,0,6.5-2.9,6.5-6.5v-29.9
		C467.5,472.1,464.7,469.2,461.1,469.1L461.1,469.1z M115.7,16.1c-1.9-2.4-5.4-2.8-7.8-1c-0.4,0.3-0.7,0.6-1,1L29,114.8
		c-2.9,3.7-0.3,9,4.4,9h52.9v368.7c0,3.1,2.5,5.6,5.6,5.6h39c3.1,0,5.6-2.5,5.6-5.6V123.8h52.9c4.7,0,7.3-5.4,4.4-9L115.7,16.1z"/>
</g>
</svg>
